# xmcd CD database file
#
# Track frame offsets:
#	150
#	16704
#	36733
#	58845
#	85894
#	99443
#	116119
#	134793
#	149578
#	171201
#	198203
#	217359
#	232762
#	247194
#	263918
#
# Disc length: 3718 seconds
#
# Revision: 0
# Processed by: cddbd v1.5.2PL0 Copyright (c) Steve Scherf et al.
# Submitted via: CDex 1.51
#
DISCID=e90e840f
DTITLE=Lefty Dizz and Carlos Johnson - The Healer
DYEAR=2000
DGENRE=Blues
TTITLE0=Call Me Carlos Johnson
TTITLE1=The Healer
TTITLE2=Jimmy Reed Medley
TTITLE3=I Got To Love Somebody`s Baby
TTITLE4=Crack Head Woman
TTITLE5=Caldonia
TTITLE6=Woke Up This Morning ( Dreamin`Blues )
TTITLE7=You Can`t Make Love Alone
TTITLE8=Chips Flying Everywhere
TTITLE9=Hoodoo Man Blues
TTITLE10=Caldonia
TTITLE11=The Dozens ( I`m Moving In On You )
TTITLE12=Sure Had A Wonderful Time
TTITLE13=Cloudy Weather
TTITLE14=I Found Out
EXTD=YEAR: 2000
EXTT0=
EXTT1=
EXTT2=
EXTT3=
EXTT4=
EXTT5=
EXTT6=
EXTT7=
EXTT8=
EXTT9=
EXTT10=
EXTT11=
EXTT12=
EXTT13=
EXTT14=
PLAYORDER=
